<svg width="24" height="24" viewBox="0 0 24 24" fill="none" xmlns="http://www.w3.org/2000/svg">
<path fill-rule="evenodd" clip-rule="evenodd" d="M7.25 6.25V6C7.25 3.37665 9.37665 1.25 12 1.25C14.6234 1.25 16.75 3.37665 16.75 6V6.25H17.2656C18.6341 6.25 19.7944 7.25631 19.9879 8.61109L21.4165 18.6111C21.6532 20.2678 20.3677 21.75 18.6941 21.75H5.30618C3.63267 21.75 2.34715 20.2678 2.58382 18.6111L4.01239 8.61109C4.20593 7.2563 5.36621 6.25 6.73475 6.25H7.25ZM8.75 6C8.75 4.20507 10.2051 2.75 12 2.75C13.7949 2.75 15.25 4.20507 15.25 6V6.25H8.75V6ZM5.49732 8.82322C5.58529 8.20741 6.11269 7.75 6.73475 7.75H17.2656C17.8876 7.75 18.415 8.20741 18.503 8.82322L19.9316 18.8232C20.0392 19.5763 19.4548 20.25 18.6941 20.25H5.30618C4.54549 20.25 3.96117 19.5763 4.06874 18.8232L5.49732 8.82322Z" fill="white"/>
</svg>
